<svg version="1.1" id="Layer_1" xmlns="http://www.w3.org/2000/svg" xmlns:xlink="http://www.w3.org/1999/xlink" x="0px" y="0px"
	 width="100%" viewBox="0 0 1024 1024" enable-background="new 0 0 1024 1024" xml:space="preserve">
<path fill="#000000" opacity="1.000000" stroke="none" 
	d="
M626.766113,312.846863 
	C623.854858,304.662201 625.255066,297.673615 631.147949,291.823700 
	C637.028687,285.985779 644.090088,285.394440 651.520447,288.165253 
	C666.965576,293.924866 682.450867,299.597931 697.724121,305.788818 
	C705.650513,309.001709 709.063171,315.780548 708.304016,324.854248 
	C707.655029,332.610229 703.318726,337.772095 696.098145,340.391388 
	C691.378418,342.103455 686.526978,341.837921 681.949829,339.844757 
	C678.831604,338.486908 677.377747,339.555542 676.338440,342.439514 
	C672.895447,351.993835 669.588989,361.607941 665.765137,371.009979 
	C663.840942,375.740997 665.492371,377.476227 669.768311,378.915253 
	C676.864807,381.303406 683.810364,384.143524 690.800415,386.842682 
	C693.805786,388.003204 695.963013,390.001221 696.070251,393.437622 
	C696.198975,397.565002 691.665833,400.757507 687.063477,399.143921 
	C682.751892,397.632263 681.307861,399.099396 679.873474,402.962921 
	C664.113037,445.414734 648.259155,487.832336 632.237915,530.186340 
	C629.418701,537.639221 627.419678,545.461853 623.259521,552.366211 
	C621.744568,554.880493 622.913391,556.291504 624.743652,557.836426 
	C642.648132,572.950012 653.992920,592.127075 657.446472,615.181152 
	C664.782532,664.153503 637.514893,706.257507 593.079468,720.896362 
	C565.480652,729.988525 538.764832,726.209900 513.786865,711.356262 
	C503.810364,705.423584 495.382568,697.581787 488.582184,688.167969 
	C486.238525,684.923645 484.346222,684.128113 480.408569,685.858093 
	C429.167084,708.369507 368.038055,680.001831 352.577393,626.176086 
	C343.606262,594.943237 348.718658,565.804626 368.839813,539.868530 
	C371.423492,536.538208 371.917542,533.701294 370.670654,529.877930 
	C359.830383,496.636597 349.106873,463.357208 338.329529,430.095367 
	C332.787598,412.991364 327.147095,395.918915 321.696198,378.786072 
	C320.662628,375.537415 319.212494,373.584076 315.689972,372.397980 
	C305.184967,368.860809 298.154449,359.216797 298.076324,349.250488 
	C297.982269,337.255829 304.533569,327.588776 316.002441,323.752319 
	C336.050415,317.046082 356.153381,310.495544 376.321045,304.159149 
	C387.977142,300.496918 399.016571,304.323822 405.698029,313.342377 
	C411.174591,320.734589 412.913971,334.935455 404.991394,344.054626 
	C403.449554,345.829315 403.012726,347.737701 403.778839,350.063324 
	C412.529755,376.626648 421.226776,403.207672 429.955505,429.778320 
	C430.203369,430.532898 430.642914,431.224518 431.352966,432.686493 
	C451.083893,411.888031 474.658997,400.584137 503.236908,400.649292 
	C531.715210,400.714233 555.136841,412.034637 574.347900,432.396454 
	C576.551636,431.657715 576.934387,429.904633 577.499512,428.416687 
	C584.707581,409.439117 591.842651,390.433807 599.061157,371.460205 
	C600.147522,368.604767 599.595337,366.846588 596.723938,365.441315 
	C591.864502,363.063019 590.258850,359.643463 591.872253,356.071411 
	C593.473999,352.525269 597.210938,351.535492 602.203125,353.408142 
	C609.531921,356.157288 616.883301,358.853027 624.145264,361.770081 
	C627.130432,362.969177 628.730103,362.340515 629.843567,359.298340 
	C633.560547,349.142517 637.403015,339.032227 641.259094,328.928040 
	C642.491821,325.697937 640.755310,324.340515 638.123474,323.335602 
	C633.086060,321.412170 629.274475,318.106201 626.766113,312.846863 
M562.553101,709.773743 
	C566.718079,709.828308 570.826172,709.471558 574.975037,708.910278 
	C607.173523,704.554077 634.597839,679.296570 641.214050,647.798157 
	C641.798340,645.016418 641.010437,643.836914 638.284485,643.272278 
	C628.881836,641.324768 621.701050,636.162659 616.039490,628.378845 
	C609.329773,619.153931 599.168091,617.563293 589.648438,623.710571 
	C572.890015,634.532288 554.227966,631.374756 542.292786,615.698425 
	C534.821472,605.885193 524.992310,604.097961 514.842224,611.336853 
	C507.229156,616.766418 499.186829,620.137878 489.745941,619.353821 
	C486.173492,619.057068 485.115173,620.662537 485.027649,623.973267 
	C484.762756,633.993896 485.158661,643.837769 488.050385,653.613403 
	C497.567719,685.787109 528.052185,709.232117 562.553101,709.773743 
M393.829559,592.278748 
	C386.856995,602.556946 378.825195,611.472290 365.780304,613.472229 
	C365.434937,616.958374 366.846863,619.525024 367.637177,622.171509 
	C380.561646,665.451233 429.312042,689.119324 471.321259,672.685486 
	C475.602692,671.010681 477.158295,669.446228 475.260681,664.391296 
	C464.538269,635.829102 467.218536,608.257812 482.456390,581.856873 
	C483.397552,580.226196 484.774597,578.684631 484.657471,576.606812 
	C476.720978,574.558472 471.248718,576.598206 465.761261,583.496460 
	C453.072906,599.447021 434.759186,602.551025 417.951508,591.315308 
	C409.816376,585.877136 402.117554,586.179260 393.829559,592.278748 
M490.069580,602.564758 
	C491.477417,604.833496 493.635498,603.839905 495.446106,603.602539 
	C498.995056,603.137268 501.971985,601.274475 504.861298,599.226135 
	C522.686829,586.589111 541.166199,589.122314 554.649475,606.002441 
	C562.141418,615.381836 570.636230,616.888977 581.011902,610.679688 
	C598.989868,599.920959 616.707642,603.337708 629.412415,620.108826 
	C631.583496,622.974792 634.130188,625.274292 637.380066,626.740417 
	C641.629944,628.657654 643.149292,627.724243 642.690063,623.261047 
	C641.920959,615.785767 640.480652,608.409607 637.583191,601.446594 
	C622.890747,566.138611 588.944031,546.333923 551.203369,552.480225 
	C521.905396,557.251587 501.306671,574.090332 490.069580,602.564758 
M353.132385,327.715698 
	C342.700439,331.153076 332.250244,334.536438 321.843048,338.047180 
	C315.139130,340.308685 312.086578,345.403076 313.922333,350.899078 
	C315.989380,357.087616 320.913177,359.391113 327.984192,357.383148 
	C331.024139,356.519867 333.973389,355.307831 337.040863,354.577881 
	C341.359680,353.550140 345.263489,355.846710 346.496857,359.832703 
	C347.670593,363.626007 345.844116,367.240631 341.796783,369.124512 
	C339.874969,370.019043 337.588776,370.166962 335.709808,372.213562 
	C341.647339,390.491913 347.636475,408.929169 353.619141,427.346558 
	C354.764984,427.165283 355.319427,427.223175 355.705170,426.995361 
	C366.682770,420.512665 377.886108,421.160553 389.280670,425.773010 
	C392.600128,427.116730 396.151855,427.113770 399.637054,426.614288 
	C407.600494,425.472992 410.569031,420.695160 408.122162,413.105865 
	C402.555389,395.839935 396.921448,378.595490 391.407593,361.312744 
	C389.278564,354.639404 389.393829,354.606964 382.489044,355.906067 
	C378.198547,356.713287 374.694794,355.573730 373.276154,351.184631 
	C371.914520,346.971802 373.512543,343.542053 377.547028,341.712433 
	C380.560028,340.346069 383.818726,339.528351 386.946106,338.405396 
	C390.887207,336.990295 394.114349,334.880737 394.810455,330.271820 
	C396.141174,321.460968 389.268311,316.163849 380.019501,319.036774 
	C371.278442,321.751984 362.589600,324.635223 353.132385,327.715698 
M413.571686,525.082458 
	C377.825470,538.770996 361.874573,577.684631 364.760132,596.661499 
	C370.407654,596.171936 372.658813,594.590576 377.501648,587.710876 
	C389.072479,571.273499 408.395538,567.019531 424.838562,577.289673 
	C437.109894,584.954163 445.049408,583.513916 454.320496,572.594727 
	C463.241638,562.087830 474.857941,557.395569 488.235474,561.100037 
	C494.841827,562.929443 498.900085,561.661377 503.757965,557.517273 
	C507.645905,554.200562 507.829865,552.173218 504.700958,548.362915 
	C482.930969,521.852234 446.105225,512.163147 413.571686,525.082458 
M546.022217,463.918701 
	C551.550964,464.523926 556.369629,467.179169 561.116272,469.645172 
	C562.675842,467.380249 567.820984,454.824402 568.368347,452.839691 
	C568.898254,450.918793 567.961731,449.612152 566.944580,448.297028 
	C547.900940,423.675293 522.701477,412.874115 491.999115,416.796143 
	C466.469879,420.057312 447.225586,433.892792 434.272827,456.088470 
	C430.121429,463.202209 426.723785,470.801331 425.868378,479.495178 
	C432.661469,480.620575 436.663696,476.764496 440.472931,472.850464 
	C448.009521,465.106567 457.041046,461.272827 467.847046,461.994537 
	C476.294769,462.558716 483.454987,465.917511 489.676849,471.791748 
	C499.079529,480.669098 507.956024,481.274323 516.700623,473.352020 
	C524.912292,465.912506 534.269104,462.878235 546.022217,463.918701 
M583.248779,451.804535 
	C576.270996,470.172729 569.173218,488.496643 562.372559,506.930206 
	C559.511169,514.685852 555.642822,522.209229 555.891968,530.870728 
	C555.992249,534.355103 557.130737,536.039001 560.897583,535.940918 
	C565.881348,535.811218 570.878967,535.681213 575.863770,536.418030 
	C587.815125,538.184326 599.110352,541.957092 609.914368,547.515015 
	C612.660645,544.771790 613.970886,541.686584 614.422119,537.576477 
	C609.082153,535.405396 603.660034,533.377686 598.397095,530.997925 
	C594.991943,529.458130 593.222229,526.601868 594.699402,522.838440 
	C596.179932,519.066467 599.142822,517.509277 603.154358,518.769348 
	C606.010681,519.666504 608.818115,520.735840 611.603577,521.838806 
	C620.279419,525.274292 620.275330,525.295837 623.027832,516.471924 
	C623.169739,516.017029 623.144775,515.510071 623.223267,514.791077 
	C621.617615,513.975952 619.981445,513.201294 618.398315,512.330078 
	C615.064087,510.495087 613.501343,507.808136 614.930725,504.039917 
	C616.360291,500.271515 619.631409,498.703949 622.983826,500.192139 
	C628.199158,502.507324 629.819824,500.013672 630.930725,495.765137 
	C631.429810,493.856720 632.008972,491.969269 632.697815,489.562073 
	C627.529053,487.508789 622.613953,485.564636 617.705505,483.603668 
	C613.960205,482.107391 611.238037,479.817505 612.496460,475.316589 
	C613.660889,471.151733 617.363037,469.573517 622.215271,471.124329 
	C625.860229,472.289276 629.456238,473.648438 632.976440,475.149872 
	C635.851318,476.376038 638.154053,477.299225 639.520569,473.138977 
	C640.696777,469.558044 641.238403,467.102020 636.642029,465.448730 
	C620.972168,459.812561 605.401245,453.894714 589.872864,447.876984 
	C586.120667,446.422913 584.222168,447.265167 583.248779,451.804535 
M523.964722,487.571930 
	C508.293304,497.504974 493.373718,496.414948 479.809204,483.667328 
	C470.100250,474.543091 458.656860,476.073120 451.537659,483.887543 
	C445.316956,490.715790 437.569519,495.108917 427.983765,495.543121 
	C425.182587,495.670044 423.981323,497.327026 424.098175,500.227448 
	C424.282715,504.807343 425.275574,505.356476 431.743805,504.627136 
	C462.742371,501.131927 489.073822,510.906097 511.299530,532.544250 
	C515.302917,536.441833 517.546570,543.606506 522.853333,544.151001 
	C527.942688,544.673279 533.470154,540.926575 538.805176,539.056274 
	C538.962341,539.001160 539.117432,538.933777 539.279236,538.899048 
	C541.825378,538.352844 542.943237,536.975525 542.374207,534.243835 
	C541.397461,529.554749 542.259399,524.964172 543.464172,520.422791 
	C545.945679,511.068665 549.813660,502.211731 553.285828,493.216705 
	C556.162537,485.764282 555.584473,484.156281 548.331604,480.496216 
	C546.328064,479.485138 544.217285,479.333679 542.057312,479.098755 
	C534.593811,478.287018 529.483643,482.517334 523.964722,487.571930 
M613.102844,372.767700 
	C605.408264,391.170654 598.927795,410.030731 591.919373,428.692322 
	C590.450195,432.604401 591.065552,434.232330 594.924866,435.637390 
	C609.624451,440.989044 624.221069,446.622925 638.878845,452.090454 
	C646.662415,454.993866 646.687378,454.938629 649.043823,447.062195 
	C649.130249,446.773438 648.988342,446.416351 648.921814,445.806458 
	C647.048401,444.766998 644.934631,443.793274 643.042480,442.496338 
	C640.396729,440.682861 639.514771,438.075592 640.788452,435.060303 
	C642.012146,432.163239 644.354858,430.697479 647.507935,430.903076 
	C648.808716,430.987854 650.132263,431.418335 651.351562,431.919861 
	C654.230713,433.104279 655.453430,431.632904 655.858032,429.122925 
	C656.266907,426.586182 659.969421,423.627869 655.228821,421.592468 
	C651.101746,419.820404 646.898376,418.224426 642.714844,416.585938 
	C640.251709,415.621246 638.375854,414.165588 637.837830,411.393921 
	C636.706909,405.568542 641.456848,402.199036 647.918152,404.425934 
	C652.888062,406.138824 657.766724,408.116364 662.792419,410.016449 
	C665.565735,404.144501 667.613098,398.783478 669.173218,392.968964 
	C666.140930,391.766968 663.386780,390.639709 660.607117,389.579193 
	C645.075745,383.653534 629.709290,377.274445 613.102844,372.767700 
M361.693756,442.045685 
	C359.181885,444.189758 359.865234,446.664795 360.732971,449.333405 
	C367.416931,469.889221 374.011047,490.474274 380.677307,511.035889 
	C381.939697,514.929626 383.398987,518.759521 385.031281,523.362915 
	C391.117096,519.489441 396.279297,515.435059 402.328613,513.219971 
	C407.514557,511.321167 409.276642,508.375916 408.853333,502.744629 
	C407.653015,486.776459 409.228973,470.910248 416.625275,456.561249 
	C420.483246,449.076691 418.460480,443.418335 415.157959,436.679016 
	C403.596130,444.050598 391.895142,443.274750 379.664062,438.852875 
	C373.834930,436.745453 367.453247,436.954620 361.693756,442.045685 
M695.291809,324.045959 
	C695.865051,320.224609 693.822937,318.125824 690.531921,316.893005 
	C676.208374,311.527191 661.886108,306.157501 647.548218,300.830261 
	C643.865662,299.462067 640.354126,299.706757 638.749817,303.792297 
	C637.115601,307.953705 640.219543,310.012970 643.441345,311.246887 
	C657.726196,316.717926 672.054077,322.079163 686.420410,327.332642 
	C689.721924,328.539917 693.052490,328.567505 695.291809,324.045959 
M663.617981,339.171448 
	C666.396301,333.977051 662.756958,332.827881 658.985107,331.216400 
	C654.471863,329.288208 653.823975,332.592285 652.802368,335.269226 
	C649.729431,343.321564 646.764893,351.416473 643.858215,359.530670 
	C640.583252,368.673004 640.852600,369.090485 650.391907,371.281921 
	C650.531616,371.313995 650.706421,371.193207 651.567627,370.924377 
	C655.396484,360.872772 659.390015,350.388855 663.617981,339.171448 
z"/>
<path fill="#000000" opacity="1.000000" stroke="none" 
	d="
M400.455078,907.677490 
	C371.268921,897.927795 356.392792,877.861267 358.067627,848.294983 
	C359.275208,826.977295 367.764557,808.469543 385.901306,795.919617 
	C399.543365,786.479858 414.907104,785.280090 430.910980,788.517639 
	C448.939941,792.164856 463.408569,800.802490 473.040253,816.904602 
	C475.379700,820.815735 475.631897,823.226135 470.881012,825.381348 
	C465.590057,827.781860 460.576202,830.828308 455.571350,833.811035 
	C452.546234,835.614014 450.653595,835.258179 448.581665,832.224243 
	C440.440369,820.302979 428.595367,816.305908 414.724701,817.216858 
	C408.644501,817.616089 403.300690,820.145569 399.465729,824.811890 
	C390.976044,835.142273 387.334412,847.004028 390.626343,860.215332 
	C393.592743,872.120300 402.765381,877.591003 413.798370,880.519287 
	C416.659393,881.278564 419.615173,881.829468 422.672546,881.702026 
	C431.004669,881.354614 433.897034,878.697754 434.938080,870.585449 
	C435.248718,868.164856 433.779419,867.693970 432.195068,867.211853 
	C426.625946,865.517212 421.078278,863.714294 415.429382,862.333435 
	C411.922150,861.476135 410.657318,859.888428 411.720825,856.362732 
	C413.498260,850.470215 415.157806,844.541443 416.809570,838.611938 
	C417.690063,835.451294 419.280426,834.466980 422.679443,835.488586 
	C436.381287,839.606934 450.160553,843.468201 463.919525,847.395325 
	C465.485443,847.842346 466.996979,848.725098 469.125214,848.187256 
	C470.276184,844.421082 471.199097,840.379395 472.723999,836.579224 
	C481.857330,813.818848 499.674255,802.747131 523.211792,799.845703 
	C541.181702,797.630493 558.141907,800.365173 572.772217,811.916077 
	C586.714966,822.924133 593.276733,837.746338 594.247498,855.226868 
	C594.900146,866.977966 594.203857,878.522705 588.668091,889.301514 
	C580.817688,904.587219 568.378784,914.132385 551.993286,918.658508 
	C539.429626,922.128906 526.637085,922.585815 513.937500,919.795532 
	C489.544495,914.435913 472.936401,895.823669 469.748535,870.927979 
	C469.206207,866.692566 468.581879,862.470093 468.161804,858.089966 
	C465.236389,868.279419 461.510162,878.319946 459.581757,888.694702 
	C456.985962,902.660034 447.252380,907.559143 435.325836,910.138977 
	C423.683136,912.657471 412.139130,911.393127 400.455078,907.677490 
M526.428162,828.999451 
	C524.645996,829.370544 522.795898,829.547302 521.092285,830.143066 
	C506.160156,835.365051 497.589325,850.640381 500.541779,866.332214 
	C503.644379,882.822083 516.552124,892.540649 532.804199,892.036804 
	C552.700317,891.419922 564.377563,875.945435 563.456909,859.806763 
	C562.251587,838.678650 546.889404,825.874695 526.428162,828.999451 
z"/>
<path fill="#000000" opacity="1.000000" stroke="none" 
	d="
M754.119629,711.679688 
	C742.987122,688.520691 754.271912,648.214233 786.100830,633.142456 
	C778.922546,631.964539 780.241089,628.024719 781.606506,623.270630 
	C788.587952,598.963501 795.278442,574.572449 801.989136,550.188354 
	C802.821289,547.164368 804.341614,546.044495 807.407654,546.902405 
	C814.139160,548.785828 820.871887,550.674255 827.650513,552.375977 
	C831.066711,553.233521 831.651367,554.899048 830.700073,558.197815 
	C826.318726,573.389587 822.346802,588.700806 817.862671,603.861084 
	C815.749634,611.005005 821.530884,609.778015 824.843262,611.202454 
	C828.964233,612.974365 830.596680,610.505981 831.567627,607.022949 
	C835.497437,592.925476 839.544495,578.859619 843.314026,564.719604 
	C844.160217,561.545227 845.329468,560.660889 848.505737,561.666382 
	C854.535095,563.575012 860.640320,565.265198 866.769287,566.829712 
	C870.524658,567.788269 871.901794,569.305725 870.639282,573.498291 
	C866.511230,587.207336 862.925720,601.079163 858.855225,614.806519 
	C857.689880,618.736389 857.749512,621.251892 862.476624,621.853088 
	C863.782959,622.019287 865.111816,622.376648 866.316650,622.905334 
	C870.480530,624.732788 872.340942,623.051758 873.435913,618.971252 
	C877.490295,603.862244 881.770447,588.813904 885.918762,573.729858 
	C887.686279,567.302795 888.155518,567.055908 894.542053,568.931396 
	C900.292236,570.620056 906.057068,572.288330 911.885681,573.669373 
	C915.238831,574.463867 916.252136,575.978027 915.303345,579.333923 
	C909.190552,600.954895 903.174744,622.603394 897.146057,644.248108 
	C896.030457,648.253357 894.791016,652.241150 893.987305,656.311707 
	C893.076416,660.925720 891.065308,662.185059 886.324402,660.804138 
	C868.419678,655.589050 850.397705,650.777405 832.431213,645.773132 
	C824.574585,643.584839 816.747498,641.290466 808.902649,639.059509 
	C807.656860,638.705261 806.405334,637.988220 804.786072,639.108093 
	C804.736328,643.258301 806.022400,647.373840 807.234985,651.422241 
	C808.342651,655.120483 807.358521,656.695190 803.656128,657.937744 
	C790.504639,662.351868 781.301270,675.026611 780.990784,688.486023 
	C780.659058,702.868591 793.299927,717.417480 808.220154,719.825317 
	C825.209778,722.567200 840.107361,711.388245 843.560791,693.133606 
	C844.389648,688.752136 845.418518,684.308105 843.904785,679.798035 
	C842.748169,676.351929 845.043396,675.424072 847.751587,674.957947 
	C854.475098,673.800720 861.239685,672.842468 867.911987,671.443054 
	C871.435181,670.704041 872.832092,671.940063 873.389160,675.211609 
	C874.976624,684.533936 875.214294,693.827393 872.231567,702.896118 
	C865.436584,723.555603 853.757324,740.671936 832.933472,748.769836 
	C812.057678,756.887939 792.668640,751.116882 775.096558,738.355713 
	C765.734924,731.557129 758.745667,722.762695 754.119629,711.679688 
z"/>
<path fill="#000000" opacity="1.000000" stroke="none" 
	d="
M642.168579,866.888550 
	C645.542603,874.731445 648.657898,882.277527 652.033630,889.705261 
	C653.422119,892.760437 653.090027,894.509949 649.793762,895.889160 
	C641.665588,899.290039 633.649353,902.958435 626.075745,906.303955 
	C624.041687,905.947449 623.735962,904.718201 623.282837,903.678711 
	C608.843201,870.551270 594.442261,837.406799 579.950317,804.302246 
	C578.536621,801.072815 578.889587,799.022644 582.350159,797.640747 
	C588.071350,795.355957 593.758972,792.976501 599.380920,790.458496 
	C602.075928,789.251526 604.221680,790.268616 606.443542,791.484497 
	C625.440796,801.881104 644.425476,812.300659 663.447327,822.651978 
	C665.841125,823.954590 668.089783,825.753784 671.482239,826.092407 
	C668.562317,817.053162 663.476746,809.559326 660.174683,801.252808 
	C656.546387,792.125732 652.501160,783.156982 648.392700,774.231995 
	C646.800537,770.773193 647.715942,769.146973 651.055786,767.781860 
	C657.681458,765.073853 664.227722,762.156555 670.710938,759.121094 
	C674.370117,757.407776 676.402161,758.213989 678.023682,761.996948 
	C690.030823,790.009827 702.178589,817.962341 714.294434,845.928589 
	C716.413147,850.819214 718.486206,855.733948 720.776428,860.544250 
	C722.197815,863.529541 721.358276,865.078735 718.398804,866.251953 
	C712.827759,868.460327 707.302185,870.802856 701.864807,873.320801 
	C699.166077,874.570557 696.969788,874.364990 694.371582,872.929443 
	C674.689209,862.055298 654.937439,851.306702 635.186890,840.556335 
	C633.488647,839.631958 631.881470,838.382812 629.184448,838.241028 
	C633.561646,847.896851 637.788269,857.220459 642.168579,866.888550 
z"/>
<path fill="#000000" opacity="1.000000" stroke="none" 
	d="
M220.342148,671.290039 
	C228.578873,665.022461 236.665573,659.140625 244.415024,652.843811 
	C247.985443,649.942566 250.253693,649.577271 253.234848,653.625183 
	C263.508514,667.575256 274.349182,681.113037 284.447388,695.185730 
	C297.250519,713.027954 296.968658,731.223022 284.346924,746.756470 
	C272.985840,760.738403 255.851929,765.202026 239.081421,758.571533 
	C238.017059,758.150818 236.884644,757.902283 235.146515,757.383362 
	C233.500900,764.114807 231.875854,770.642822 230.313995,777.186035 
	C228.883896,783.177185 227.482864,789.176025 226.150986,795.189636 
	C225.664841,797.384644 224.802216,799.219971 222.983749,800.665710 
	C220.882339,802.336365 219.222046,802.361450 217.520599,800.101379 
	C212.310349,793.180359 207.043594,786.301392 201.746552,779.446472 
	C200.239212,777.495850 200.378952,775.487061 200.982834,773.298523 
	C203.724548,763.362244 206.122589,753.319336 209.224030,743.497925 
	C211.611908,735.936035 212.307449,729.220276 204.071381,724.073669 
	C201.748810,724.737366 199.546417,726.800476 197.208344,728.571167 
	C191.232208,733.097046 185.247711,737.618103 179.417587,742.328003 
	C176.713882,744.512207 174.838181,744.258240 172.833038,741.491577 
	C168.727142,735.826294 164.637222,730.133911 160.213654,724.719849 
	C157.177063,721.003296 157.723389,718.670593 161.497345,715.847107 
	C181.101379,701.180542 200.550888,686.307373 220.342148,671.290039 
M230.180695,703.620667 
	C228.567352,705.030945 226.453064,706.232117 228.507919,708.867310 
	C233.215225,714.903870 237.664459,721.156372 242.617325,726.982178 
	C246.626007,731.697327 253.039734,732.132202 257.948761,728.674866 
	C262.847656,725.224731 265.370972,718.018860 262.310516,713.263855 
	C257.491791,705.777222 251.867615,698.809021 246.354538,691.308594 
	C240.735168,695.577148 235.727890,699.380737 230.180695,703.620667 
z"/>
<path fill="#000000" opacity="1.000000" stroke="none" 
	d="
M159.294434,680.009338 
	C142.561386,674.625488 132.453247,662.747437 126.436424,647.479736 
	C120.339981,632.010071 115.477547,616.056213 109.950996,600.357910 
	C108.823219,597.154419 110.461555,596.248596 112.959557,595.396973 
	C133.124130,588.522766 153.271744,581.598755 173.422424,574.683838 
	C187.111008,569.986389 200.835342,565.388123 214.457458,560.505005 
	C218.215378,559.157959 219.713440,560.075500 220.922806,563.784790 
	C225.875076,578.973816 231.714996,593.896301 236.128082,609.233521 
	C246.327408,644.679993 227.917435,670.860413 194.204742,680.152649 
	C182.716400,683.319275 171.187851,683.208618 159.294434,680.009338 
M156.141541,613.668213 
	C155.192413,613.979248 154.240875,614.283203 153.294586,614.602539 
	C147.096817,616.693665 147.020889,616.812073 149.205963,623.073914 
	C150.795639,627.629395 152.248260,632.248901 154.135910,636.680603 
	C157.161118,643.782959 162.106598,649.246887 169.992645,650.497742 
	C176.751694,651.569824 183.604767,650.985474 190.185928,648.587097 
	C206.264862,642.727478 212.267029,631.135498 207.523865,614.682983 
	C206.373169,610.691650 204.593246,606.879089 203.489029,602.877686 
	C202.357147,598.776001 200.282928,598.315552 196.517548,599.671448 
	C183.364563,604.407471 170.108429,608.857056 156.141541,613.668213 
z"/>
<path fill="#000000" opacity="1.000000" stroke="none" 
	d="
M233.003571,816.054138 
	C230.760971,814.367126 228.820908,812.872314 226.708054,811.244385 
	C229.735138,806.544189 234.504395,804.919556 238.462723,802.462830 
	C269.147095,783.419495 299.991241,764.633667 330.715790,745.654602 
	C333.389618,744.002991 335.352081,743.934814 337.902802,745.771484 
	C344.113617,750.243652 350.455322,754.540283 356.844391,758.755920 
	C359.421997,760.456726 360.132202,762.352661 359.572784,765.464966 
	C352.689178,803.760315 345.954224,842.082275 339.157043,880.393250 
	C338.842346,882.166992 338.304047,883.901062 337.940948,885.366821 
	C335.846008,886.466125 334.671295,885.256531 333.494812,884.464050 
	C326.592346,879.814758 319.782440,875.026184 312.830811,870.452515 
	C310.228302,868.740234 309.301117,866.779480 310.122070,863.738464 
	C310.855499,861.021729 310.816376,858.045227 311.835815,855.467102 
	C314.184326,849.527893 311.368011,846.363770 306.700684,843.323425 
	C295.685211,836.147827 284.821686,828.731567 274.053741,821.188477 
	C271.379974,819.315491 269.575165,819.499451 266.992310,821.276917 
	C253.947037,830.254211 253.898605,830.185242 240.742935,821.291687 
	C238.261200,819.614014 235.784912,817.928345 233.003571,816.054138 
M319.744751,814.607300 
	C321.740173,804.796753 323.735596,794.986206 325.731018,785.175659 
	C325.364532,784.901489 324.998047,784.627319 324.631531,784.353149 
	C315.712402,790.100708 306.793304,795.848267 297.190308,802.036499 
	C304.356506,806.875671 310.899323,811.308777 317.465118,815.707520 
	C318.226868,816.217834 319.030029,816.155151 319.744751,814.607300 
z"/>
<path fill="#000000" opacity="1.000000" stroke="none" 
	d="
M262.383331,248.300964 
	C264.469299,248.873444 266.019073,250.076065 268.629547,249.618530 
	C260.835266,239.949280 253.330109,230.509491 245.682938,221.186127 
	C237.052277,210.663727 237.010971,210.727478 247.666626,202.399338 
	C253.550995,197.800278 258.946350,192.366531 266.666870,190.858429 
	C278.365662,188.573212 289.416412,194.549835 295.293579,206.206329 
	C301.006989,217.538025 299.138489,227.909851 289.853058,236.545105 
	C280.846222,244.921234 270.150024,251.352936 262.029510,260.751587 
	C260.248352,262.813110 258.058411,262.204163 256.070496,261.240295 
	C252.990234,259.746796 250.720535,260.595978 248.614716,263.068634 
	C246.242035,265.854584 243.812180,268.616486 241.174408,271.146118 
	C237.557617,274.614594 234.953842,278.051025 238.585938,283.098969 
	C239.664352,284.597717 239.098679,286.314240 237.838760,287.668213 
	C228.592224,297.604706 222.256683,309.627716 214.335358,320.515533 
	C210.649841,325.581238 210.503113,325.800385 205.445007,322.323334 
	C194.331284,314.683533 183.216385,307.045319 172.126999,299.370270 
	C166.852951,295.720062 166.850372,295.499115 170.608856,290.024628 
	C171.079880,289.338531 171.604446,288.675720 171.977478,287.938049 
	C173.713058,284.505798 175.715103,284.015533 179.025406,286.407715 
	C186.983887,292.158936 195.347260,297.355286 203.231750,303.201019 
	C206.983734,305.982819 208.817459,305.120270 210.981140,301.529327 
	C213.553741,297.259766 216.641373,293.302887 219.441696,289.167084 
	C220.742630,287.245697 222.120102,285.750397 225.322266,287.767914 
	C219.485840,274.325684 214.109879,261.805115 208.600891,249.343353 
	C207.015640,245.757385 206.161362,242.704559 209.657745,239.497513 
	C213.184616,236.262497 215.555344,232.400177 221.790421,234.734680 
	C235.026108,239.690323 248.596344,243.752472 262.383331,248.300964 
M260.810120,209.150146 
	C258.818390,210.749603 256.701965,212.199066 259.198700,215.136292 
	C263.275940,219.932785 267.186981,224.870224 271.201263,229.720795 
	C272.143677,230.859543 273.038788,231.965378 274.942749,231.279037 
	C283.288147,228.270630 286.526703,218.437592 281.497467,211.118210 
	C275.946289,203.039124 270.121552,202.345642 260.810120,209.150146 
M228.742981,261.192780 
	C229.346115,262.181183 229.958145,263.602570 231.298477,262.210419 
	C233.399963,260.027740 235.991394,258.167267 237.325333,254.885803 
	C232.875336,253.511307 229.281998,251.107132 224.392380,250.942383 
	C225.888885,254.517242 227.164658,257.564850 228.742981,261.192780 
z"/>
<path fill="#000000" opacity="1.000000" stroke="none" 
	d="
M722.079590,736.917236 
	C718.544373,733.595154 715.284546,730.496155 711.961609,727.466309 
	C709.928650,725.612671 709.963318,723.975769 711.910461,722.003784 
	C717.410767,716.433228 722.928955,710.869324 728.177185,705.065063 
	C731.033447,701.906067 732.795349,703.439697 735.070251,705.636414 
	C751.966675,721.952148 768.924438,738.204285 785.874146,754.464783 
	C794.166016,762.419373 802.487122,770.343506 810.784790,778.292114 
	C815.652405,782.954956 815.640991,782.962219 811.161011,787.663147 
	C806.679077,792.366150 802.099243,796.981689 797.762085,801.814758 
	C795.185181,804.686279 793.290771,805.314026 790.112366,802.234497 
	C767.619019,780.441650 744.944824,758.835327 722.079590,736.917236 
z"/>
<path fill="#000000" opacity="1.000000" stroke="none" 
	d="
M868.452759,319.540039 
	C871.265686,323.187073 870.838806,325.261719 866.813660,327.544922 
	C854.379456,334.597961 842.183350,342.075867 829.986694,349.539032 
	C826.881287,351.439209 825.359375,350.956848 823.246033,347.860504 
	C820.145752,343.318207 820.205200,339.330811 822.340088,334.468994 
	C825.938416,326.274628 828.931152,317.814331 832.636414,308.288940 
	C825.495117,312.562012 819.212341,316.055939 813.226318,320.000153 
	C809.477051,322.470551 807.551208,321.662537 805.453491,317.908539 
	C800.536438,309.109009 800.304077,310.647156 808.475586,305.711761 
	C819.862915,298.834045 831.390259,292.186890 842.739807,285.248169 
	C845.766296,283.397888 847.283691,284.031525 849.139343,286.844482 
	C851.813293,290.897766 852.730896,294.590363 850.624268,299.375092 
	C846.885193,307.867798 843.815857,316.655365 839.975769,326.588562 
	C846.434265,322.725769 851.870605,319.455963 857.325012,316.216766 
	C864.230896,312.115509 864.237244,312.126251 868.452759,319.540039 
z"/>
<path fill="#000000" opacity="1.000000" stroke="none" 
	d="
M569.496033,122.534248 
	C569.596436,121.595825 569.617310,121.096085 569.664429,120.598831 
	C570.870056,107.873184 571.734192,110.606026 582.423584,111.850540 
	C584.503723,112.092712 584.994080,113.462891 584.735046,115.472809 
	C582.800659,130.480316 580.902832,145.492905 579.096863,160.516312 
	C578.740723,163.478424 577.325867,164.480255 574.458252,164.295349 
	C569.790344,163.994370 566.024963,162.965698 563.508606,158.175446 
	C559.194336,149.962570 554.133240,142.141998 548.963623,133.446808 
	C546.630066,138.529266 547.417603,143.284760 546.356079,147.673431 
	C546.202332,148.308914 546.293884,149.001450 546.250427,149.666183 
	C545.543640,160.481064 544.475708,161.269928 534.083557,159.210419 
	C531.611572,158.720505 530.656128,157.531082 530.970032,155.089737 
	C532.389893,144.048584 533.775452,133.003021 535.184509,121.960464 
	C535.563110,118.993637 535.738831,115.971458 536.457703,113.086838 
	C537.032532,110.780281 535.605042,106.858528 539.504517,106.693153 
	C543.634399,106.517990 548.266418,105.793472 551.005615,110.656303 
	C555.254395,118.198944 559.767395,125.592781 564.173096,133.046936 
	C565.012817,134.467651 565.874573,135.875320 567.320496,138.275558 
	C568.115723,132.503937 568.772278,127.739021 569.496033,122.534248 
z"/>
<path fill="#000000" opacity="1.000000" stroke="none" 
	d="
M885.805664,388.703735 
	C873.958557,401.144012 858.186096,403.473419 846.505981,394.757599 
	C835.317749,386.408813 831.088074,368.155914 837.646057,356.523956 
	C844.238098,344.831787 860.145996,339.298340 872.679749,343.783661 
	C886.370117,348.682892 897.884705,372.774750 885.805664,388.703735 
M848.263245,370.530762 
	C849.059570,378.871643 853.162231,384.167755 859.870422,385.514435 
	C864.971619,386.538544 872.898926,382.893402 875.278076,378.282654 
	C878.241760,372.539093 877.684265,366.836792 873.903259,361.801331 
	C870.178772,356.840942 864.641968,355.885193 859.004028,357.445374 
	C852.965881,359.116302 848.783936,362.948578 848.263245,370.530762 
z"/>
<path fill="#000000" opacity="1.000000" stroke="none" 
	d="
M326.791626,211.217041 
	C303.147766,218.175781 286.962219,194.243942 291.879547,176.903397 
	C296.786835,159.598160 322.320801,147.321228 338.246979,161.601242 
	C356.453125,177.925537 351.251434,201.658997 326.791626,211.217041 
M318.073944,169.487686 
	C316.512054,170.062668 314.883148,170.502121 313.399841,171.235977 
	C306.787781,174.507324 303.974091,182.715393 307.020844,189.620529 
	C310.354950,197.177017 317.766876,200.349136 325.080170,197.349487 
	C331.862061,194.567810 335.795837,188.227295 334.565216,182.061356 
	C333.054047,174.489624 327.021454,169.624771 318.073944,169.487686 
z"/>
<path fill="#000000" opacity="1.000000" stroke="none" 
	d="
M742.987000,176.978210 
	C748.685181,182.464111 753.719788,188.283417 754.437927,196.715073 
	C755.429138,208.353622 750.182495,217.025742 741.225525,223.515717 
	C732.357544,229.941132 722.804504,229.394699 713.468079,224.268204 
	C694.083557,213.624435 691.301941,192.838623 707.104919,177.415756 
	C714.740051,169.964294 726.070190,168.414612 736.233826,173.477875 
	C738.312561,174.513458 740.314270,175.703857 742.679321,176.911591 
	C743.007141,177.000259 742.987000,176.978210 742.987000,176.978210 
M727.108398,184.504898 
	C725.628235,184.626129 724.102600,184.558228 722.675720,184.901093 
	C716.225647,186.451035 711.475647,192.346268 711.244568,198.915680 
	C710.996338,205.973389 715.199890,211.451508 722.425903,213.487228 
	C728.313354,215.145828 734.340088,212.465271 738.055664,206.535370 
	C743.467773,197.897903 739.152710,188.623688 727.108398,184.504898 
z"/>
<path fill="#000000" opacity="1.000000" stroke="none" 
	d="
M673.969299,196.702423 
	C672.909546,191.589661 671.864746,186.878662 670.988586,182.136490 
	C670.538879,179.702820 669.214478,178.209915 666.890320,177.684235 
	C664.329651,177.105057 664.142151,179.606705 663.082275,180.909195 
	C662.463257,181.669846 662.030334,182.608078 661.632446,183.518341 
	C657.658325,192.610092 658.534058,191.128052 650.313049,187.579269 
	C646.250305,185.825500 645.634155,183.920624 647.572632,180.030792 
	C653.875061,167.383682 659.935974,154.614853 665.968140,141.835388 
	C667.552551,138.478806 669.328125,137.397110 672.927795,139.310699 
	C678.943604,142.508682 685.262817,145.132812 691.307373,148.280609 
	C704.952454,155.386520 707.108093,169.890472 696.122314,179.816467 
	C694.104187,181.639923 691.870789,183.192184 689.088867,183.224579 
	C685.074097,183.271301 685.083984,185.317474 685.666809,188.490829 
	C686.633545,193.755005 688.932922,198.873367 688.402039,205.438126 
	C682.747620,202.871201 677.127197,202.370316 673.969299,196.702423 
M686.605408,169.049759 
	C691.607056,163.417770 687.257874,159.090439 675.851807,155.835876 
	C674.045959,157.595474 673.263367,159.992920 672.181641,162.203781 
	C671.685242,163.218414 671.102417,164.228592 672.037231,165.423599 
	C673.994812,167.926132 682.925110,170.586578 686.605408,169.049759 
z"/>
<path fill="#000000" opacity="1.000000" stroke="none" 
	d="
M788.091187,236.963974 
	C787.220825,233.077789 785.755127,229.976685 783.077209,227.500458 
	C778.856384,223.597458 774.036377,221.518082 768.489868,224.007690 
	C762.664734,226.622360 758.788269,231.202744 758.358643,237.778458 
	C757.951965,244.002731 761.716003,247.998901 766.763184,250.894974 
	C769.935303,252.715134 772.478821,251.973022 774.120544,248.690857 
	C773.883545,247.105789 772.659424,246.383560 771.748657,245.457443 
	C766.382202,240.000351 766.517395,240.147324 771.650085,234.725418 
	C774.188049,232.044540 775.971191,231.865295 778.559570,234.545135 
	C782.139709,238.251602 786.018005,241.672806 789.813538,245.167343 
	C791.989746,247.170868 792.661438,249.022171 790.207275,251.435883 
	C786.053711,255.520981 782.157776,259.866943 778.036316,263.985992 
	C775.221680,266.798920 771.616394,266.397583 768.137939,265.795807 
	C756.886169,263.849243 745.411011,251.897247 743.874817,240.639786 
	C742.413757,229.932877 750.582336,216.705948 761.926331,211.409943 
	C777.640686,204.073654 798.412781,215.450089 800.286926,232.419189 
	C800.927368,238.218033 800.505798,238.795319 794.660889,238.828995 
	C792.471008,238.841629 789.907104,239.851456 788.091187,236.963974 
z"/>
<path fill="#000000" opacity="1.000000" stroke="none" 
	d="
M455.874146,123.238647 
	C460.527466,129.839371 461.717285,136.973648 461.160309,144.434692 
	C460.420776,154.340836 453.638794,162.568420 443.698761,165.211945 
	C436.648438,167.086960 429.409119,168.241776 422.282257,169.843140 
	C419.239716,170.526779 418.128082,169.272232 417.574707,166.425781 
	C414.720703,151.745041 411.733734,137.090088 408.777740,122.429260 
	C408.330505,120.211029 408.540558,118.403847 411.231689,117.936882 
	C419.726074,116.462921 427.988464,113.617302 436.742035,113.671806 
	C444.548492,113.720406 450.967407,116.566750 455.874146,123.238647 
M431.012085,153.694290 
	C433.207764,154.073364 435.261627,153.395126 437.372314,152.948868 
	C442.400848,151.885681 446.002960,149.160217 446.727814,143.968063 
	C447.534332,138.190521 446.865356,132.421112 441.623901,128.760162 
	C436.963440,125.504974 431.751465,126.991806 426.776093,128.412201 
	C425.166840,128.871613 425.051392,130.430817 425.334412,131.728256 
	C426.911194,138.956604 427.287048,146.463821 431.012085,153.694290 
z"/>
<path fill="#000000" opacity="1.000000" stroke="none" 
	d="
M185.838135,342.764038 
	C188.803497,337.147980 191.704849,331.898804 194.354614,326.525574 
	C195.704224,323.788788 196.970612,322.757782 200.082581,324.463318 
	C209.274734,329.501129 208.902908,327.747101 204.161331,337.106476 
	C200.023987,345.273163 195.621399,353.305481 191.488007,361.474060 
	C190.006027,364.402863 188.587357,365.308228 185.319824,363.550995 
	C172.708054,356.768585 159.990463,350.176422 147.198792,343.738953 
	C143.149277,341.701050 142.461472,339.687134 144.787415,335.616669 
	C149.572433,327.242859 153.888626,318.594971 158.214844,309.968140 
	C159.968872,306.470459 161.762436,305.424377 165.567322,307.531372 
	C172.853668,311.566315 172.966446,311.348785 169.025665,318.858765 
	C166.937637,322.837952 164.821381,326.803802 162.825073,330.828857 
	C161.986923,332.518799 160.498444,334.340759 163.305679,335.873749 
	C166.026123,337.359314 167.149490,336.001709 168.262222,333.741669 
	C170.688461,328.813721 173.383942,324.017609 175.780609,319.076050 
	C177.114059,316.326721 178.744461,315.674500 181.254044,317.479095 
	C181.388336,317.575684 181.542816,317.644897 181.690018,317.722809 
	C189.470383,321.840149 189.435898,321.821381 185.329468,329.398621 
	C183.507141,332.761200 181.843079,336.210114 180.133072,339.632782 
	C179.283615,341.333008 177.584549,343.035522 180.372787,344.661652 
	C182.802460,346.078674 184.448608,345.428864 185.838135,342.764038 
z"/>
<path fill="#000000" opacity="1.000000" stroke="none" 
	d="
M800.728271,252.702789 
	C804.242981,249.872696 807.548828,247.344223 810.700073,244.635925 
	C813.023071,242.639450 814.778931,242.401566 816.887329,245.085297 
	C823.463989,253.456604 830.197021,261.706207 836.946472,269.939850 
	C838.734558,272.121063 839.228394,273.889282 836.477539,275.646179 
	C835.369995,276.353516 834.424683,277.340088 833.483398,278.277771 
	C830.669556,281.080902 828.264771,281.111755 825.746277,277.719818 
	C822.576599,273.451019 819.156189,269.362762 815.736145,265.287140 
	C812.660156,261.621552 812.595886,261.675476 808.504089,265.298981 
	C811.478455,270.798187 816.202881,275.083801 819.810486,280.179016 
	C823.137756,284.878326 823.054565,284.710999 816.483765,290.039490 
	C812.932678,292.919159 811.398682,291.040863 809.401611,288.374542 
	C806.312195,284.250000 802.942322,280.336670 799.770508,276.272034 
	C798.398132,274.513397 797.067871,274.007996 795.193726,275.561676 
	C793.492310,276.972229 793.041748,278.353821 794.543396,280.213806 
	C798.512695,285.130280 802.285767,290.211914 806.396606,295.005066 
	C809.032288,298.078217 808.585022,300.213348 805.327759,302.232635 
	C804.060303,303.018341 802.857239,303.936829 801.734009,304.919525 
	C799.818604,306.595062 798.183594,306.358093 796.635437,304.444183 
	C789.419800,295.523376 782.197144,286.608246 774.975647,277.692169 
	C772.700195,274.882874 775.030396,273.513885 776.802246,272.071075 
	C784.667114,265.666779 792.566223,259.304626 800.728271,252.702789 
z"/>
<path fill="#000000" opacity="1.000000" stroke="none" 
	d="
M149.618835,408.475098 
	C141.103302,405.447357 133.003403,402.409576 124.795639,399.698334 
	C121.352463,398.560974 120.815857,396.718842 122.097382,393.699493 
	C126.126060,384.207703 122.904434,383.510437 134.582336,387.760376 
	C144.511795,391.374054 144.543961,391.285675 147.767532,381.049377 
	C150.250839,373.163727 150.250839,373.163727 142.237320,370.390289 
	C141.608582,370.172668 140.977753,369.960785 140.351639,369.735870 
	C131.292007,366.481628 131.432831,366.535706 134.877258,357.652893 
	C136.194290,354.256378 137.801437,353.442505 141.235916,354.694397 
	C154.985397,359.706177 168.784271,364.587067 182.627228,369.334564 
	C186.071533,370.515778 186.387817,372.162262 185.147369,375.312622 
	C181.081223,385.639282 183.015320,384.661652 172.882492,381.087524 
	C161.168335,376.955597 163.818436,377.586823 159.996231,387.330017 
	C159.034393,389.781738 157.929855,392.233765 157.866180,395.174164 
	C161.858139,397.937836 166.621811,398.951691 171.120972,400.511169 
	C174.547348,401.698822 175.297791,403.470428 174.161011,406.895630 
	C171.038483,416.304047 171.162277,416.322388 161.737915,412.798981 
	C157.842972,411.342834 153.907776,409.994385 149.618835,408.475098 
z"/>
<path fill="#000000" opacity="1.000000" stroke="none" 
	d="
M466.879608,120.060616 
	C466.686829,108.056747 466.674500,107.908760 478.040771,106.961487 
	C485.827850,106.312500 493.658264,106.199318 501.463684,105.749207 
	C508.403412,105.349030 505.996521,110.908516 506.786102,114.218277 
	C507.706970,118.078133 505.195038,119.037361 501.860443,119.168175 
	C496.539856,119.376869 491.229492,119.835091 485.911652,120.131371 
	C483.485748,120.266518 481.086395,120.222267 481.309204,123.760262 
	C481.545776,127.517342 484.330383,126.689156 486.488159,126.600883 
	C491.308685,126.403671 496.149536,126.203888 500.925415,125.574883 
	C504.657196,125.083389 506.056244,126.349983 506.268250,130.033646 
	C506.720093,137.884277 506.389160,138.432510 498.353546,138.927124 
	C494.531921,139.162369 490.694397,139.140030 486.872925,139.376938 
	C484.441254,139.527679 482.083069,139.957092 482.487640,143.379608 
	C482.854614,146.484131 484.841217,146.347626 487.222076,146.094620 
	C493.174377,145.462112 499.213074,146.182739 505.142761,144.974289 
	C508.032166,144.385422 509.356689,145.834534 509.930359,148.611618 
	C511.621033,156.796021 510.638611,158.408401 502.366150,158.962158 
	C492.902283,159.595673 483.412781,159.836441 473.941223,160.369202 
	C470.618927,160.556076 469.038025,159.352646 468.868347,155.913589 
	C468.286438,144.117661 467.557892,132.328964 466.879608,120.060616 
z"/>
<path fill="#000000" opacity="1.000000" stroke="none" 
	d="
M379.253052,133.487183 
	C381.511475,138.540634 377.457214,144.835541 372.655762,144.391129 
	C368.928101,144.046127 365.287811,144.238449 362.117981,146.473816 
	C360.313568,147.746307 357.518555,148.800171 358.936890,151.795807 
	C360.233154,154.533691 362.863312,153.777023 365.124756,153.273132 
	C367.558472,152.730835 369.927612,151.903717 372.354218,151.323502 
	C383.236206,148.721497 391.828491,153.082245 394.825317,162.507660 
	C396.543274,167.910934 395.350861,172.784546 392.246735,177.165283 
	C385.983612,186.004257 370.089203,190.909927 359.788696,187.375076 
	C357.432861,186.566605 354.286316,185.686661 354.261902,183.032715 
	C354.230530,179.623642 355.706940,176.183914 358.064240,173.506943 
	C359.276123,172.130707 360.917419,173.377289 362.254883,173.826782 
	C367.296722,175.521179 372.111725,174.990570 376.746399,172.548279 
	C379.173462,171.269287 381.692230,169.691879 380.567474,166.441193 
	C379.465790,163.257034 376.393951,164.139404 374.073151,164.423279 
	C371.290375,164.763641 368.588226,165.748993 365.844940,166.429855 
	C356.420166,168.768967 349.581879,166.095993 345.908844,158.650620 
	C342.114685,150.959763 343.999908,143.429596 351.788147,137.674423 
	C359.973083,131.626114 368.933960,128.849503 379.253052,133.487183 
z"/>
<path fill="#000000" opacity="1.000000" stroke="none" 
	d="
M717.921753,749.194397 
	C720.328064,757.401367 722.371521,765.305298 724.982666,773.016968 
	C726.465271,777.395691 726.354675,780.637390 722.062378,783.218994 
	C718.969971,785.078979 717.081238,788.584106 712.918335,790.164062 
	C708.318665,779.676147 706.711792,768.259949 702.201721,757.154114 
	C698.693970,760.083862 695.627014,762.547791 692.677124,765.144653 
	C690.810791,766.787537 689.355713,766.877686 687.664856,764.840271 
	C678.304016,753.559937 677.643127,758.002441 688.355286,747.873779 
	C693.429443,743.075989 699.001831,738.806091 704.093079,734.024963 
	C707.224121,731.084534 709.413452,731.783752 711.991394,734.639893 
	C715.664734,738.709717 715.895935,744.078918 717.921753,749.194397 
z"/>
<path fill="#000000" opacity="1.000000" stroke="none" 
	d="
M639.945923,146.915619 
	C636.753845,156.433640 633.571045,165.552109 630.691467,174.765335 
	C629.524109,178.500519 627.893494,179.330551 624.135925,177.924454 
	C615.794434,174.803070 615.645630,174.971085 618.371765,166.348892 
	C620.979187,158.102463 623.556213,149.834534 626.570862,141.733932 
	C628.038574,137.790009 626.809753,136.169785 623.144897,135.391907 
	C622.009155,135.150879 620.929016,134.609879 619.788452,134.435883 
	C614.402832,133.614334 613.700500,130.925034 615.594299,126.088875 
	C617.975159,120.008858 617.910339,119.758385 624.048035,121.803909 
	C634.469421,125.277077 644.818420,129.004791 655.361145,132.062469 
	C661.740112,133.912537 658.691101,137.564682 657.919128,140.980850 
	C657.078247,144.702103 655.296326,146.666809 651.225525,144.742310 
	C649.879944,144.106155 648.347534,143.870468 646.986816,143.259674 
	C643.333618,141.619919 640.895447,142.339523 639.945923,146.915619 
z"/>
<path fill="#000000" opacity="1.000000" stroke="none" 
	d="
M605.699219,117.136215 
	C610.011108,117.905754 610.738037,120.269730 609.862122,123.796432 
	C606.383789,137.801727 602.904114,151.808319 599.648865,165.866302 
	C598.824707,169.425735 596.999695,170.079941 593.931519,169.188965 
	C584.136230,166.344482 584.332581,168.515259 586.876648,158.060867 
	C589.972473,145.338898 592.952332,132.586868 595.791809,119.805519 
	C596.544189,116.418983 598.143127,115.303551 601.395325,116.211365 
	C602.672058,116.567764 603.993835,116.762932 605.699219,117.136215 
z"/>
<path fill="#000000" opacity="1.000000" stroke="none" 
	d="
M743.020142,177.008301 
	C741.675415,174.467941 738.173157,174.145813 737.031616,171.387283 
	C743.292358,163.591492 753.448914,163.456253 759.074036,170.963531 
	C760.126404,172.368011 760.010559,173.786011 758.494324,174.145386 
	C753.605164,175.304230 749.157043,178.768036 743.348938,177.063614 
	C742.987000,176.978210 743.007141,177.000259 743.020142,177.008301 
z"/>
<path fill="#000000" opacity="1.000000" stroke="none" 
	d="
M543.806030,700.158936 
	C541.060242,701.537720 538.708618,701.426880 536.239258,700.444214 
	C523.430176,695.346802 512.783630,687.389404 504.524933,676.356812 
	C500.576416,671.082153 500.980804,666.311646 505.259796,663.240906 
	C509.367554,660.292969 514.174805,661.625000 518.024414,666.593140 
	C524.256836,674.636414 532.147644,680.570801 541.502747,684.535706 
	C549.229248,687.810303 550.380127,694.338928 543.806030,700.158936 
z"/>
<path fill="#000000" opacity="1.000000" stroke="none" 
	d="
M412.877869,648.109619 
	C415.716156,649.563232 418.234528,650.843201 420.760193,652.108765 
	C425.245148,654.355957 427.286346,658.694397 425.755066,662.746155 
	C424.098785,667.128540 419.359558,669.497437 414.686096,667.646179 
	C401.027863,662.236023 389.906158,653.475159 381.723389,641.231201 
	C378.935303,637.059326 379.986908,632.472412 383.739594,629.743774 
	C387.570129,626.958557 391.815826,627.560669 395.126465,631.700989 
	C400.149139,637.982300 405.713226,643.632690 412.877869,648.109619 
z"/>
<path fill="#000000" opacity="1.000000" stroke="none" 
	d="
M502.656555,419.789246 
	C508.999176,420.832458 511.778625,423.908691 511.367065,428.947479 
	C510.993347,433.523285 507.964783,436.148590 502.374634,436.253540 
	C491.688599,436.454132 481.758270,439.185883 472.423279,444.373993 
	C467.007355,447.384033 462.796509,446.547119 460.241058,442.315796 
	C457.728882,438.156128 459.305511,433.115479 464.264435,430.185028 
	C475.955078,423.276520 488.609406,419.773560 502.656555,419.789246 
z"/>
<path fill="#000000" opacity="1.000000" stroke="none" 
	d="
M393.263123,462.490234 
	C396.149475,465.250275 397.376892,468.108765 395.736115,471.652191 
	C393.954071,475.500580 390.076385,477.135162 386.262207,475.662811 
	C382.348389,474.152039 380.359222,469.975586 381.945984,465.846954 
	C383.452850,461.926086 386.507874,460.352600 390.678864,461.298523 
	C391.470001,461.477936 392.199585,461.928802 393.263123,462.490234 
z"/>
</svg>